<?xml version="1.0" encoding="utf-8"?>
<!-- Generator: Adobe Illustrator 18.1.1, SVG Export Plug-In . SVG Version: 6.00 Build 0)  -->
<svg version="1.1" id="Layer_1" xmlns="http://www.w3.org/2000/svg" xmlns:xlink="http://www.w3.org/1999/xlink" x="0px" y="0px"
	 viewBox="0 0 512 512" enable-background="new 0 0 512 512" xml:space="preserve">
<path fill="#FE484A" d="M203.5,267.3L203.5,267.3c0-41.4,33.6-75,75-75h0c41.4,0,75,33.6,75,75v0c0,41.4-33.6,75-75,75h0
	C237.1,342.3,203.5,308.8,203.5,267.3z"/>
<path fill="#FFFFFF" stroke="#000000" stroke-width="12" stroke-miterlimit="10" d="M131.8,424.9L131.8,424.9
	c-14.8,0-26.7-12-26.7-26.7v0c0-14.8,12-26.7,26.7-26.7h0c14.8,0,26.7,12,26.7,26.7v0C158.5,413,146.5,424.9,131.8,424.9z"/>
<polyline points="183,429.5 194.1,429.5 201.4,417.5 183.2,417.5 183.2,365 171.2,365 171.2,418.5 171.4,418.5 171.4,429.5 
	183,429.5 "/>
<g>
</g>
<polyline fill="none" stroke="#000000" stroke-width="12" stroke-miterlimit="10" points="200.8,438.7 237.3,376 271.9,436.5 "/>
<rect x="196" y="429.5" fill="#FFFFFF" width="84.1" height="12.5"/>
<g>
	<path d="M297,403.8v21.8h-5.2v-56h14.5c2.9,0,5.5,0.4,7.8,1.1c2.3,0.7,4.2,1.8,5.7,3.2c1.6,1.4,2.7,3.1,3.6,5.1
		c0.8,2,1.2,4.3,1.2,6.9c0,2.6-0.5,5-1.4,7.2c-0.9,2.2-2.2,4.1-3.9,5.7c-1.7,1.6-3.8,2.9-6.2,3.8c-2.4,0.9-5.2,1.3-8.3,1.3H297z
		 M297,374.3V399h7.4c4.8,0,8.5-1.1,11-3.4c2.5-2.2,3.8-5.4,3.8-9.5c0-7.9-4.6-11.8-13.8-11.8H297z"/>
	<path d="M336,425.6v-56h5.2v51.3h22.5v4.7H336z"/>
	<path d="M411.7,425.6l-6.2-16.6h-24l-6,16.6h-5.8l21.3-56h5.2l21.2,56H411.7z M394.7,379.4c-0.2-0.5-0.4-1.1-0.6-1.7
		c-0.2-0.7-0.4-1.4-0.5-2.2h-0.2c-0.2,0.8-0.3,1.6-0.5,2.2c-0.2,0.7-0.4,1.2-0.6,1.7l-9.1,24.9h20.5L394.7,379.4z"/>
	<path d="M437.1,404.6v21h-5.2v-20.9l-17.6-35.2h5.9l12.8,26.2c0.2,0.3,0.4,0.8,0.6,1.4c0.3,0.6,0.6,1.4,0.9,2.4h0.1
		c0.2-0.5,0.4-1,0.7-1.6c0.3-0.6,0.6-1.3,1.1-2.1l13.4-26.2h5.5L437.1,404.6z"/>
</g>
<g>
	<polygon fill="#FFFFFF" points="250.5,306.3 250.5,274.2 250.8,274.1 262.4,269.3 250.8,264.6 250.5,264.5 250.5,232.4 
		314.4,269.3 	"/>
	<polygon fill="#FF9298" points="250,274.4 250.5,274.2 250.8,274.1 262.4,269.3 250.8,264.6 250.5,264.5 250,264.3 250.5,264.3 
		250.8,264.4 302.8,269.3 250.8,274.3 250.5,274.4 	"/>
</g>
<line fill="none" x1="81.5" y1="137.5" x2="68.7" y2="137.5"/>
<polygon stroke="#000000" stroke-miterlimit="10" points="68.8,136.6 68.7,137.5 68.3,137.5 "/>
<polygon stroke="#000000" stroke-miterlimit="10" points="81.9,137.5 81.5,137.5 81.4,136.6 "/>
<g>
</g>
<g>
</g>
<g>
</g>
<g>
</g>
<g>
</g>
<g>
</g>
<g>
</g>
<g>
</g>
<g>
</g>
<g>
</g>
<g>
</g>
</svg>
